<svg xmlns="http://www.w3.org/2000/svg" viewBox="0 0 88 88">
    <g fill="none" fill-rule="evenodd">
        <path
            fill="#4298B4"
            d="M43.93 14.365c-5.906 0-10.695 4.79-10.695 10.696 0 5.908 4.789 10.696 10.696 10.696 5.906 0 10.695-4.788 10.695-10.696 0-5.907-4.789-10.696-10.695-10.696"
        />
        <path
            fill="#88619A"
            d="M14.365 43.8c0 5.907 4.79 10.696 10.696 10.696 5.908 0 10.696-4.79 10.696-10.696 0-5.908-4.788-10.696-10.696-10.696-5.907 0-10.696 4.79-10.696 10.696"
        />
        <path
            fill="#E4AE3A"
            d="M73.417 43.8c0 5.907-4.79 10.696-10.696 10.696-5.907 0-10.696-4.79-10.696-10.696 0-5.908 4.789-10.696 10.696-10.696s10.696 4.79 10.696 10.696"
        />
        <path
            fill="#33A474"
            d="M43.93 73.418c-5.906 0-10.695-4.79-10.695-10.696 0-5.908 4.789-10.696 10.696-10.696 5.906 0 10.695 4.788 10.695 10.696 0 5.907-4.789 10.696-10.695 10.696"
        />
        <path
            fill="#4298B4"
            fill-rule="nonzero"
            d="M21.197 6.206a4.297 4.297 0 0 0-4.293 4.293 4.298 4.298 0 0 0 4.293 4.294 4.298 4.298 0 0 0 4.292-4.294 4.298 4.298 0 0 0-4.292-4.293M35.558 0a4.297 4.297 0 0 0-4.293 4.293 4.298 4.298 0 0 0 4.293 4.293 4.298 4.298 0 0 0 4.293-4.293A4.297 4.297 0 0 0 35.558 0M52.245 0a4.297 4.297 0 0 0-4.292 4.293 4.298 4.298 0 0 0 4.292 4.293 4.298 4.298 0 0 0 4.293-4.293A4.297 4.297 0 0 0 52.245 0M66.585 6.206a4.297 4.297 0 0 0-4.292 4.293 4.298 4.298 0 0 0 4.292 4.294 4.298 4.298 0 0 0 4.293-4.294 4.298 4.298 0 0 0-4.293-4.293"
        />
        <path
            fill="#33A474"
            fill-rule="nonzero"
            d="M21.197 72.991a4.297 4.297 0 0 0-4.293 4.293 4.298 4.298 0 0 0 4.293 4.294 4.298 4.298 0 0 0 4.292-4.294 4.297 4.297 0 0 0-4.292-4.293M35.558 79.197a4.298 4.298 0 0 0-4.293 4.293 4.299 4.299 0 0 0 4.293 4.294 4.299 4.299 0 0 0 4.293-4.294 4.298 4.298 0 0 0-4.293-4.293M52.245 79.197a4.298 4.298 0 0 0-4.292 4.293 4.299 4.299 0 0 0 4.292 4.294 4.299 4.299 0 0 0 4.293-4.294 4.298 4.298 0 0 0-4.293-4.293M66.585 72.991a4.297 4.297 0 0 0-4.292 4.293 4.298 4.298 0 0 0 4.292 4.294 4.298 4.298 0 0 0 4.293-4.294 4.297 4.297 0 0 0-4.293-4.293"
        />
        <path
            fill="#88619A"
            fill-rule="nonzero"
            d="M10.5 62.293a4.297 4.297 0 0 0-4.293 4.293 4.299 4.299 0 0 0 4.293 4.295 4.299 4.299 0 0 0 4.293-4.295 4.298 4.298 0 0 0-4.293-4.293M8.586 52.225a4.298 4.298 0 0 0-4.292-4.293A4.298 4.298 0 0 0 0 52.225a4.299 4.299 0 0 0 4.294 4.294 4.3 4.3 0 0 0 4.292-4.294M4.293 39.831a4.297 4.297 0 0 0 4.292-4.293 4.298 4.298 0 0 0-4.292-4.293A4.298 4.298 0 0 0 0 35.538a4.297 4.297 0 0 0 4.293 4.293M10.5 16.904a4.297 4.297 0 0 0-4.293 4.293 4.298 4.298 0 0 0 4.293 4.294 4.298 4.298 0 0 0 4.293-4.294 4.299 4.299 0 0 0-4.293-4.293"
        />
        <path
            fill="#E4AE3A"
            fill-rule="nonzero"
            d="M77.282 62.293a4.297 4.297 0 0 0-4.293 4.293 4.299 4.299 0 0 0 4.293 4.295 4.299 4.299 0 0 0 4.293-4.295 4.296 4.296 0 0 0-4.293-4.293M83.49 47.932a4.297 4.297 0 0 0-4.293 4.293 4.298 4.298 0 0 0 4.292 4.294 4.298 4.298 0 0 0 4.293-4.294 4.297 4.297 0 0 0-4.293-4.293M79.196 35.538a4.297 4.297 0 0 0 4.292 4.293 4.298 4.298 0 0 0 4.294-4.293 4.298 4.298 0 0 0-4.294-4.292 4.297 4.297 0 0 0-4.292 4.292M77.282 25.49a4.297 4.297 0 0 0 4.293-4.292 4.298 4.298 0 0 0-4.293-4.294 4.298 4.298 0 0 0-4.293 4.294 4.298 4.298 0 0 0 4.293 4.293"
        />
    </g>
</svg>
